<?xml version="1.0" encoding="utf-8"?>
<!-- Generator: Adobe Illustrator 22.0.1, SVG Export Plug-In . SVG Version: 6.00 Build 0)  -->
<svg version="1.1" id="Ebene_1" xmlns="http://www.w3.org/2000/svg" xmlns:xlink="http://www.w3.org/1999/xlink" x="0px" y="0px"
	 viewBox="0 0 24 24" style="enable-background:new 0 0 24 24;" xml:space="preserve">
<style type="text/css">
	.st0{fill:url(#SVGID_1_);}
</style>
<g id="Ebene_2">
</g>
<linearGradient id="SVGID_1_" gradientUnits="userSpaceOnUse" x1="14.9121" y1="1.8516" x2="7.8013" y2="33.8162">
	<stop  offset="0" style="stop-color:#880E4F"/>
	<stop  offset="1" style="stop-color:#000000"/>
</linearGradient>
<path class="st0" d="M23,16v-1.5c0-1.4-1.1-2.5-2.5-2.5S18,13.1,18,14.5V16c-0.5,0-1,0.5-1,1v4c0,0.5,0.5,1,1,1h5c0.5,0,1-0.5,1-1
	v-4C24,16.5,23.5,16,23,16z M22,16h-3v-1.5c0-0.8,0.7-1.5,1.5-1.5s1.5,0.7,1.5,1.5V16z M15.5,14.5c0-2.8,2.2-5,5-5
	c0.4,0,0.7,0,1,0.1L23.6,7C23.2,6.7,18.7,3,12,3S0.8,6.7,0.4,7L12,21.5l3.5-4.4V14.5z"/>
</svg>
